<svg width="24.000000" height="15.000000" viewBox="0 0 24 15" fill="none" xmlns="http://www.w3.org/2000/svg" xmlns:xlink="http://www.w3.org/1999/xlink">
	<desc>
			Created with Pixso.
	</desc>
	<defs/>
	<path id="Vector" d="M23.61 1.09L22.83 0.3C22.58 0.05 22.25 -0.08 21.9 -0.08C21.55 -0.08 21.22 0.05 20.97 0.3L12 9.27L3.02 0.29C2.78 0.04 2.45 -0.09 2.09 -0.09C1.74 -0.09 1.41 0.04 1.17 0.29L0.38 1.08C-0.13 1.59 -0.13 2.42 0.38 2.93L11.07 13.66C11.32 13.91 11.64 14.08 12 14.08L12 14.08C12.36 14.08 12.68 13.91 12.93 13.66L23.61 2.96C23.86 2.72 23.99 2.38 24 2.02C24 1.67 23.86 1.34 23.61 1.09Z" fill="#9D61FF" fill-opacity="1.000000" fill-rule="nonzero"/>
</svg>
